<svg width="160" height="43" viewBox="0 0 160 43" fill="none" xmlns="http://www.w3.org/2000/svg">
<path d="M23.2312 43C32.3874 43 39.81 35.5774 39.81 26.4212V12.3157C39.81 8.40681 36.8526 5.23809 33.2044 5.23809H13.258C9.60975 5.23809 6.65234 8.40681 6.65234 12.3157V26.4212C6.65234 35.5774 14.0749 43 23.2312 43V43Z" fill="#634C9F"/>
<path d="M15.6191 26.2226C15.9645 27.8881 17.0008 30.1084 18.2097 30.4785C25.1537 33.0151 32.5304 32.9248 39.8127 33.0316V12.3157C39.8127 8.40681 36.8553 5.23808 33.2071 5.23808H13.2607C11.2903 5.23808 9.52265 6.1635 8.3125 7.62943C14.0309 11.3583 13.8323 19.6086 15.6191 26.2226Z" fill="#FACC15"/>
<path d="M38.2313 34.0614C38.0986 34.0614 37.9651 34.0556 37.8309 34.044L20.8188 32.556C18.2094 32.3277 16.0064 30.3523 15.3368 27.6407L12.0202 14.2086C11.4321 11.8202 10.8238 9.35074 8.22514 8.6026L0.827657 6.97308C0.267229 6.84966 -0.0938981 6.2627 0.0214689 5.66204C0.136663 5.06138 0.685349 4.67463 1.24509 4.79805L8.7265 6.44774C12.5157 7.5162 13.3875 11.0569 14.0241 13.6421L14.0665 13.815L17.3403 27.0728C17.7857 28.8768 19.2513 30.1908 20.9874 30.3429L37.9997 31.8308C39.3523 31.9493 40.5953 31.0177 40.956 29.6166L44.0901 17.4441L22.3666 15.532C21.8966 15.4911 21.4533 15.6878 21.149 16.0729C20.8447 16.4582 20.7364 16.9595 20.852 17.4487L21.8215 21.5573C22.1421 22.9152 23.2311 23.9218 24.532 24.0622L34.7735 25.1681C35.2965 25.2245 35.7742 24.8909 35.9383 24.3574C36.0443 24.0117 35.9985 23.6389 35.8124 23.3345C35.626 23.0301 35.3252 22.8361 34.9868 22.8026L26.3861 21.9503C25.8164 21.8939 25.3972 21.3532 25.4499 20.7425C25.5026 20.1321 26.0044 19.6826 26.5771 19.7392L35.1778 20.5915C36.1483 20.6878 37.0113 21.2438 37.5456 22.1172C38.0798 22.9905 38.2114 24.0604 37.9066 25.0521C37.436 26.5829 36.0604 27.5393 34.5658 27.3773L24.3242 26.2715C22.159 26.0378 20.3458 24.362 19.8123 22.1017L18.8427 17.9931C18.561 16.8001 18.8253 15.5773 19.5674 14.6382C20.3095 13.6989 21.3915 13.2187 22.5362 13.3189L46.7532 15.4504L42.9539 30.2071C42.3645 32.4959 40.4156 34.0612 38.2313 34.0614Z" fill="#634C9F"/>
<path d="M23.2394 36.7965C23.2394 38.4658 21.9764 39.8191 20.4185 39.8191C18.8607 39.8191 17.5977 38.4658 17.5977 36.7965C17.5977 35.1272 18.8607 33.7742 20.4185 33.7742C21.9764 33.7742 23.2394 35.1272 23.2394 36.7965Z" fill="#DC2626"/>
<path d="M37.2679 37.7153C37.2679 38.724 36.5049 39.5415 35.5636 39.5415C34.6224 39.5415 33.8594 38.724 33.8594 37.7153C33.8594 36.7068 34.6224 35.8893 35.5636 35.8893C36.5049 35.8893 37.2679 36.7068 37.2679 37.7153Z" fill="#DC2626"/>
<path d="M20.2791 9.93862C20.2791 11.4034 19.1708 12.5909 17.8037 12.5909C16.4365 12.5909 15.3281 11.4034 15.3281 9.93862C15.3281 8.4738 16.4365 7.28617 17.8037 7.28617C19.1708 7.28617 20.2791 8.4738 20.2791 9.93862Z" fill="#F25321"/>
<path d="M24.872 3.58526C24.872 5.56543 23.374 7.17052 21.5258 7.17052C19.6779 7.17052 18.1797 5.56543 18.1797 3.58526C18.1797 1.60527 19.6779 -5.08223e-06 21.5258 -5.08223e-06C23.374 -5.08223e-06 24.872 1.60527 24.872 3.58526Z" fill="#634C9F"/>
<path d="M24.0599 9.05448C24.0599 9.7471 23.536 10.3087 22.8893 10.3087C22.2429 10.3087 21.7188 9.7471 21.7188 9.05448C21.7188 8.36185 22.2429 7.80023 22.8893 7.80023C23.536 7.80023 24.0599 8.36185 24.0599 9.05448Z" fill="#634C9F"/>
<path d="M31.3176 5.405C31.3176 7.00602 30.1061 8.30392 28.6118 8.30392C27.1174 8.30392 25.9062 7.00602 25.9062 5.405C25.9062 3.8038 27.1174 2.50589 28.6118 2.50589C30.1061 2.50589 31.3176 3.8038 31.3176 5.405Z" fill="#F25321"/>
<path d="M33.9196 10.8483C33.9196 12.1514 32.9336 13.2076 31.7176 13.2076C30.5014 13.2076 29.5156 12.1514 29.5156 10.8483C29.5156 9.5454 30.5014 8.48897 31.7176 8.48897C32.9336 8.48897 33.9196 9.5454 33.9196 10.8483Z" fill="#F25321"/>
<path d="M43.2673 11.8816C43.2673 13.1847 42.2813 14.2409 41.0653 14.2409C39.8491 14.2409 38.8633 13.1847 38.8633 11.8816C38.8633 10.5787 39.8491 9.52224 41.0653 9.52224C42.2813 9.52224 43.2673 10.5787 43.2673 11.8816Z" fill="#634C9F"/>
<path d="M27.9594 11.2646C27.9594 12.1334 27.3023 12.8375 26.4914 12.8375C25.6808 12.8375 25.0234 12.1334 25.0234 11.2646C25.0234 10.396 25.6808 9.69175 26.4914 9.69175C27.3023 9.69175 27.9594 10.396 27.9594 11.2646Z" fill="#634C9F"/>
<path d="M36.8564 5.55915C36.8564 6.64926 36.0315 7.53304 35.0141 7.53304C33.9969 7.53304 33.1719 6.64926 33.1719 5.55915C33.1719 4.46905 33.9969 3.58527 35.0141 3.58527C36.0315 3.58527 36.8564 4.46905 36.8564 5.55915Z" fill="#634C9F"/>
<path d="M37.6352 11.8816C37.6352 12.7502 36.9781 13.4545 36.1672 13.4545C35.3565 13.4545 34.6992 12.7502 34.6992 11.8816C34.6992 11.013 35.3565 10.3087 36.1672 10.3087C36.9781 10.3087 37.6352 11.013 37.6352 11.8816Z" fill="#634C9F"/>
<path d="M39.3348 8.3039C39.3348 9.03631 38.7805 9.63013 38.097 9.63013C37.4134 9.63013 36.8594 9.03631 36.8594 8.3039C36.8594 7.57149 37.4134 6.97787 38.097 6.97787C38.7805 6.97787 39.3348 7.57149 39.3348 8.3039Z" fill="#F25321"/>
<path d="M65.6502 9.77185H69.2979V21.9423C69.2979 23.0673 69.0451 24.0446 68.5394 24.8741C68.0394 25.7037 67.3434 26.3429 66.4513 26.7917C65.5593 27.2406 64.5224 27.465 63.3406 27.465C62.2894 27.465 61.3349 27.2804 60.4769 26.9111C59.6246 26.5361 58.9485 25.9679 58.4485 25.2065C57.9485 24.4395 57.7013 23.4764 57.707 22.3173H61.3803C61.3917 22.7775 61.4854 23.1724 61.6616 23.502C61.8434 23.8258 62.0906 24.0758 62.4031 24.252C62.7212 24.4224 63.0962 24.5076 63.5281 24.5076C63.9826 24.5076 64.3661 24.4111 64.6786 24.2179C64.9968 24.019 65.2383 23.7292 65.4031 23.3486C65.5678 22.9679 65.6502 22.4991 65.6502 21.9423V9.77185ZM72.2809 27.2264V14.1355H75.9116V27.2264H72.2809ZM74.1048 12.448C73.565 12.448 73.1019 12.269 72.7156 11.9111C72.3349 11.5474 72.1445 11.1128 72.1445 10.6071C72.1445 10.1071 72.3349 9.6781 72.7156 9.32014C73.1019 8.95651 73.565 8.77469 74.1048 8.77469C74.6445 8.77469 75.1048 8.95651 75.4854 9.32014C75.8718 9.6781 76.065 10.1071 76.065 10.6071C76.065 11.1128 75.8718 11.5474 75.4854 11.9111C75.1048 12.269 74.6445 12.448 74.1048 12.448ZM82.4506 19.6582V27.2264H78.82V14.1355H82.2802V16.4451H82.4336C82.7234 15.6838 83.2092 15.0815 83.891 14.6383C84.5728 14.1895 85.3995 13.965 86.3711 13.965C87.2802 13.965 88.0728 14.1639 88.7489 14.5616C89.4251 14.9593 89.9506 15.5275 90.3256 16.2662C90.7006 16.9991 90.8881 17.8741 90.8881 18.8912V27.2264H87.2575V19.5389C87.2631 18.7378 87.0586 18.1128 86.6438 17.6639C86.229 17.2093 85.658 16.9821 84.9308 16.9821C84.4421 16.9821 84.0103 17.0872 83.6353 17.2974C83.266 17.5076 82.9762 17.8145 82.766 18.2179C82.5614 18.6156 82.4563 19.0957 82.4506 19.6582ZM103.287 14.7917C103.218 14.1042 102.926 13.5701 102.409 13.1895C101.892 12.8088 101.19 12.6184 100.304 12.6184C99.7013 12.6184 99.1928 12.7037 98.7781 12.8741C98.3633 13.0389 98.0451 13.269 97.8235 13.5645C97.6076 13.8599 97.4996 14.1951 97.4996 14.5701C97.4883 14.8826 97.5536 15.1554 97.6957 15.3883C97.8434 15.6213 98.0451 15.823 98.3008 15.9934C98.5565 16.1582 98.8519 16.3031 99.1871 16.4281C99.5224 16.5474 99.8803 16.6497 100.261 16.7349L101.829 17.1099C102.591 17.2804 103.289 17.5076 103.926 17.7917C104.562 18.0758 105.113 18.4253 105.579 18.84C106.045 19.2548 106.406 19.7434 106.662 20.3059C106.923 20.8684 107.056 21.5133 107.062 22.2406C107.056 23.3088 106.784 24.2349 106.244 25.019C105.71 25.7974 104.937 26.4025 103.926 26.8343C102.92 27.2605 101.707 27.4736 100.287 27.4736C98.8775 27.4736 97.6502 27.2576 96.6048 26.8258C95.565 26.394 94.7525 25.7548 94.1673 24.9082C93.5877 24.0559 93.2837 23.002 93.2553 21.7463H96.8263C96.8661 22.3315 97.0337 22.8201 97.3292 23.2122C97.6303 23.5986 98.0309 23.8912 98.5309 24.09C99.0366 24.2832 99.6076 24.3798 100.244 24.3798C100.869 24.3798 101.412 24.2889 101.872 24.1071C102.338 23.9253 102.699 23.6724 102.954 23.3486C103.21 23.0247 103.338 22.6525 103.338 22.2321C103.338 21.84 103.221 21.5105 102.988 21.2434C102.761 20.9764 102.426 20.7491 101.983 20.5616C101.545 20.3741 101.008 20.2037 100.372 20.0503L98.4712 19.573C96.9996 19.215 95.8377 18.6554 94.9854 17.894C94.1332 17.1326 93.7099 16.1071 93.7156 14.8173C93.7099 13.7605 93.9911 12.8372 94.5593 12.0474C95.1332 11.2576 95.9201 10.6412 96.9201 10.198C97.9201 9.7548 99.0565 9.53321 100.329 9.53321C101.625 9.53321 102.755 9.7548 103.721 10.198C104.693 10.6412 105.449 11.2576 105.988 12.0474C106.528 12.8372 106.806 13.752 106.824 14.7917H103.287ZM116.439 14.1355V16.8628H108.556V14.1355H116.439ZM110.346 10.9991H113.976V23.2037C113.976 23.5389 114.027 23.8003 114.13 23.9878C114.232 24.1696 114.374 24.2974 114.556 24.3713C114.743 24.4451 114.959 24.4821 115.203 24.4821C115.374 24.4821 115.544 24.4679 115.715 24.4395C115.885 24.4054 116.016 24.3798 116.107 24.3628L116.678 27.0645C116.496 27.1213 116.24 27.1866 115.911 27.2605C115.581 27.34 115.181 27.3883 114.709 27.4054C113.834 27.4395 113.067 27.323 112.408 27.0559C111.755 26.7889 111.246 26.3741 110.882 25.8116C110.519 25.2491 110.34 24.5389 110.346 23.6809V10.9991ZM124.578 27.4821C123.255 27.4821 122.11 27.2008 121.144 26.6383C120.184 26.0701 119.442 25.2804 118.919 24.269C118.397 23.252 118.135 22.073 118.135 20.7321C118.135 19.3798 118.397 18.198 118.919 17.1866C119.442 16.1696 120.184 15.3798 121.144 14.8173C122.11 14.2491 123.255 13.965 124.578 13.965C125.902 13.965 127.044 14.2491 128.005 14.8173C128.971 15.3798 129.715 16.1696 130.238 17.1866C130.76 18.198 131.022 19.3798 131.022 20.7321C131.022 22.073 130.76 23.252 130.238 24.269C129.715 25.2804 128.971 26.0701 128.005 26.6383C127.044 27.2008 125.902 27.4821 124.578 27.4821ZM124.596 24.6696C125.198 24.6696 125.701 24.4991 126.104 24.1582C126.507 23.8116 126.811 23.34 127.016 22.7434C127.226 22.1468 127.331 21.4679 127.331 20.7065C127.331 19.9451 127.226 19.2662 127.016 18.6696C126.811 18.073 126.507 17.6014 126.104 17.2548C125.701 16.9082 125.198 16.7349 124.596 16.7349C123.988 16.7349 123.476 16.9082 123.061 17.2548C122.652 17.6014 122.343 18.073 122.132 18.6696C121.928 19.2662 121.826 19.9451 121.826 20.7065C121.826 21.4679 121.928 22.1468 122.132 22.7434C122.343 23.34 122.652 23.8116 123.061 24.1582C123.476 24.4991 123.988 24.6696 124.596 24.6696ZM133.382 27.2264V14.1355H136.902V16.4196H137.039C137.277 15.6071 137.678 14.9934 138.24 14.5787C138.803 14.1582 139.451 13.948 140.184 13.948C140.365 13.948 140.561 13.9593 140.772 13.9821C140.982 14.0048 141.167 14.0361 141.326 14.0758V17.2974C141.155 17.2463 140.919 17.2008 140.618 17.1611C140.317 17.1213 140.042 17.1014 139.792 17.1014C139.257 17.1014 138.78 17.2179 138.36 17.4508C137.945 17.6781 137.615 17.9963 137.371 18.4054C137.132 18.8145 137.013 19.2861 137.013 19.8201V27.2264H133.382ZM148.559 27.4821C147.213 27.4821 146.054 27.2093 145.082 26.6639C144.116 26.1128 143.372 25.3343 142.849 24.3287C142.326 23.3173 142.065 22.1213 142.065 20.7406C142.065 19.394 142.326 18.2122 142.849 17.1951C143.372 16.1781 144.108 15.3855 145.056 14.8173C146.011 14.2491 147.13 13.965 148.414 13.965C149.278 13.965 150.082 14.1042 150.826 14.3826C151.576 14.6554 152.23 15.0673 152.787 15.6184C153.349 16.1696 153.787 16.8628 154.099 17.698C154.412 18.5275 154.568 19.4991 154.568 20.6128V21.6099H143.514V19.3599H151.15C151.15 18.8372 151.037 18.3741 150.809 17.9707C150.582 17.5673 150.267 17.252 149.863 17.0247C149.466 16.7917 149.002 16.6753 148.474 16.6753C147.923 16.6753 147.434 16.8031 147.008 17.0588C146.588 17.3088 146.258 17.6468 146.02 18.073C145.781 18.4934 145.659 18.9622 145.653 19.4792V21.6184C145.653 22.2662 145.772 22.8258 146.011 23.2974C146.255 23.769 146.599 24.1326 147.042 24.3883C147.485 24.644 148.011 24.7718 148.619 24.7718C149.022 24.7718 149.392 24.715 149.727 24.6014C150.062 24.4878 150.349 24.3173 150.588 24.09C150.826 23.8628 151.008 23.5843 151.133 23.2548L154.491 23.4764C154.321 24.2832 153.971 24.9878 153.443 25.59C152.92 26.1866 152.244 26.6525 151.414 26.9878C150.591 27.3173 149.639 27.4821 148.559 27.4821Z" fill="black"/>
<path d="M141.366 8.18777C140.975 8.18777 140.639 8.10491 140.357 7.93919C140.077 7.77181 139.862 7.53981 139.711 7.24317C139.562 6.94653 139.487 6.60515 139.487 6.21902C139.487 5.82792 139.563 5.48488 139.713 5.1899C139.866 4.89326 140.082 4.66208 140.362 4.49636C140.642 4.32899 140.975 4.2453 141.362 4.2453C141.695 4.2453 141.986 4.30579 142.237 4.42676C142.487 4.54774 142.685 4.7176 142.831 4.93635C142.976 5.1551 143.057 5.41197 143.072 5.70695H142.072C142.044 5.51637 141.97 5.36308 141.849 5.24708C141.729 5.12941 141.573 5.07058 141.379 5.07058C141.215 5.07058 141.071 5.11533 140.949 5.20482C140.828 5.29265 140.733 5.42108 140.665 5.59011C140.598 5.75915 140.564 5.96381 140.564 6.20411C140.564 6.44771 140.597 6.65486 140.663 6.82556C140.731 6.99625 140.826 7.12634 140.949 7.21583C141.071 7.30531 141.215 7.35006 141.379 7.35006C141.5 7.35006 141.608 7.3252 141.705 7.27548C141.802 7.22577 141.883 7.15368 141.946 7.05922C142.01 6.9631 142.053 6.84793 142.072 6.71369H143.072C143.055 7.00536 142.976 7.26223 142.833 7.48429C142.692 7.7047 142.498 7.87705 142.249 8.00134C142 8.12563 141.706 8.18777 141.366 8.18777ZM145.475 8.18777C145.089 8.18777 144.755 8.10574 144.473 7.94168C144.193 7.77596 143.977 7.54561 143.824 7.25063C143.672 6.95399 143.596 6.61012 143.596 6.21902C143.596 5.82461 143.672 5.47991 143.824 5.18493C143.977 4.88829 144.193 4.65794 144.473 4.49388C144.755 4.32816 145.089 4.2453 145.475 4.2453C145.861 4.2453 146.194 4.32816 146.474 4.49388C146.756 4.65794 146.973 4.88829 147.125 5.18493C147.278 5.47991 147.354 5.82461 147.354 6.21902C147.354 6.61012 147.278 6.95399 147.125 7.25063C146.973 7.54561 146.756 7.77596 146.474 7.94168C146.194 8.10574 145.861 8.18777 145.475 8.18777ZM145.48 7.36746C145.656 7.36746 145.802 7.31774 145.92 7.21831C146.037 7.11722 146.126 6.97967 146.186 6.80567C146.247 6.63166 146.278 6.43363 146.278 6.21156C146.278 5.9895 146.247 5.79146 146.186 5.61746C146.126 5.44345 146.037 5.30591 145.92 5.20482C145.802 5.10373 145.656 5.05318 145.48 5.05318C145.303 5.05318 145.153 5.10373 145.032 5.20482C144.913 5.30591 144.823 5.44345 144.761 5.61746C144.702 5.79146 144.672 5.9895 144.672 6.21156C144.672 6.43363 144.702 6.63166 144.761 6.80567C144.823 6.97967 144.913 7.11722 145.032 7.21831C145.153 7.31774 145.303 7.36746 145.48 7.36746ZM148.043 8.1132V4.29502H149.052V4.96867H149.097C149.176 4.74494 149.309 4.56845 149.494 4.43919C149.68 4.30993 149.902 4.2453 150.161 4.2453C150.422 4.2453 150.645 4.31076 150.829 4.44168C151.013 4.57094 151.136 4.7466 151.197 4.96867H151.237C151.315 4.74992 151.456 4.57508 151.66 4.44416C151.865 4.31159 152.108 4.2453 152.388 4.2453C152.744 4.2453 153.033 4.35882 153.255 4.58585C153.479 4.81123 153.591 5.13107 153.591 5.54537V8.1132H152.535V5.75418C152.535 5.54206 152.478 5.38297 152.366 5.2769C152.253 5.17084 152.112 5.11781 151.943 5.11781C151.751 5.11781 151.601 5.17913 151.493 5.30176C151.385 5.42274 151.331 5.58266 151.331 5.78152V8.1132H150.305V5.73181C150.305 5.54454 150.251 5.39539 150.143 5.28436C150.037 5.17333 149.897 5.11781 149.723 5.11781C149.605 5.11781 149.499 5.14764 149.405 5.2073C149.312 5.2653 149.238 5.34734 149.184 5.4534C149.129 5.5578 149.102 5.68043 149.102 5.82129V8.1132H148.043Z" fill="#634C9F"/>
</svg>
